<mxfile host="app.diagrams.net" modified="2024-02-07T10:00:26.800Z" agent="Mozilla/5.0 (Macintosh; Intel Mac OS X 10_15_7) AppleWebKit/537.36 (KHTML, like Gecko) Chrome/121.0.0.0 Safari/537.36" etag="xNu4WZcB7y-lRf1EDEMZ" version="23.1.1" type="device">
  <diagram id="C5RBs43oDa-KdzZeNtuy" name="Page-1">
    <mxGraphModel dx="1781" dy="606" grid="1" gridSize="10" guides="1" tooltips="1" connect="1" arrows="1" fold="1" page="1" pageScale="1" pageWidth="827" pageHeight="1169" background="#ffffff" math="0" shadow="0">
      <root>
        <mxCell id="WIyWlLk6GJQsqaUBKTNV-0" />
        <mxCell id="WIyWlLk6GJQsqaUBKTNV-1" parent="WIyWlLk6GJQsqaUBKTNV-0" />
        <mxCell id="3APorna8TCqdDRzL2BzU-54" value="" style="edgeStyle=orthogonalEdgeStyle;rounded=1;orthogonalLoop=1;jettySize=auto;html=1;" parent="WIyWlLk6GJQsqaUBKTNV-1" source="3APorna8TCqdDRzL2BzU-25" target="3APorna8TCqdDRzL2BzU-47" edge="1">
          <mxGeometry relative="1" as="geometry">
            <mxPoint x="90" y="200" as="targetPoint" />
          </mxGeometry>
        </mxCell>
        <mxCell id="3APorna8TCqdDRzL2BzU-25" value="USER&lt;br&gt;(Patient)" style="rounded=1;whiteSpace=wrap;html=1;fillColor=#dae8fc;strokeColor=#6c8ebf;" parent="WIyWlLk6GJQsqaUBKTNV-1" vertex="1">
          <mxGeometry x="30" y="280" width="120" height="60" as="geometry" />
        </mxCell>
        <mxCell id="3APorna8TCqdDRzL2BzU-26" value="USER&lt;br&gt;(Doctor)" style="rounded=1;whiteSpace=wrap;html=1;fillColor=#dae8fc;strokeColor=#6c8ebf;" parent="WIyWlLk6GJQsqaUBKTNV-1" vertex="1">
          <mxGeometry x="680" y="280" width="120" height="60" as="geometry" />
        </mxCell>
        <mxCell id="3APorna8TCqdDRzL2BzU-37" style="edgeStyle=orthogonalEdgeStyle;rounded=1;orthogonalLoop=1;jettySize=auto;html=1;" parent="WIyWlLk6GJQsqaUBKTNV-1" source="3APorna8TCqdDRzL2BzU-27" target="3APorna8TCqdDRzL2BzU-26" edge="1">
          <mxGeometry relative="1" as="geometry" />
        </mxCell>
        <mxCell id="3APorna8TCqdDRzL2BzU-39" value="" style="edgeStyle=orthogonalEdgeStyle;rounded=1;orthogonalLoop=1;jettySize=auto;html=1;" parent="WIyWlLk6GJQsqaUBKTNV-1" source="3APorna8TCqdDRzL2BzU-27" target="3APorna8TCqdDRzL2BzU-29" edge="1">
          <mxGeometry relative="1" as="geometry" />
        </mxCell>
        <mxCell id="3APorna8TCqdDRzL2BzU-27" value="Disease &lt;br&gt;Prediction&lt;br&gt;(ML)" style="ellipse;whiteSpace=wrap;html=1;fillColor=#cdeb8b;strokeColor=#36393d;rounded=1;" parent="WIyWlLk6GJQsqaUBKTNV-1" vertex="1">
          <mxGeometry x="355" y="270" width="120" height="80" as="geometry" />
        </mxCell>
        <mxCell id="3APorna8TCqdDRzL2BzU-29" value="Drug&lt;br&gt;&amp;nbsp;Recomendation&lt;br&gt;(ML)" style="ellipse;whiteSpace=wrap;html=1;fillColor=#cdeb8b;strokeColor=#36393d;rounded=1;" parent="WIyWlLk6GJQsqaUBKTNV-1" vertex="1">
          <mxGeometry x="355" y="160" width="120" height="80" as="geometry" />
        </mxCell>
        <mxCell id="3APorna8TCqdDRzL2BzU-33" value="" style="endArrow=classic;html=1;rounded=1;exitX=0;exitY=0.5;exitDx=0;exitDy=0;" parent="WIyWlLk6GJQsqaUBKTNV-1" source="3APorna8TCqdDRzL2BzU-29" edge="1">
          <mxGeometry width="50" height="50" relative="1" as="geometry">
            <mxPoint x="150" y="300" as="sourcePoint" />
            <mxPoint x="160" y="290" as="targetPoint" />
          </mxGeometry>
        </mxCell>
        <mxCell id="3APorna8TCqdDRzL2BzU-34" value="AI Therapist" style="ellipse;whiteSpace=wrap;html=1;fillColor=#cdeb8b;strokeColor=#36393d;rounded=1;" parent="WIyWlLk6GJQsqaUBKTNV-1" vertex="1">
          <mxGeometry x="354" y="390" width="120" height="80" as="geometry" />
        </mxCell>
        <mxCell id="3APorna8TCqdDRzL2BzU-35" value="" style="endArrow=classic;html=1;rounded=1;entryX=1;entryY=0.75;entryDx=0;entryDy=0;" parent="WIyWlLk6GJQsqaUBKTNV-1" target="3APorna8TCqdDRzL2BzU-25" edge="1">
          <mxGeometry width="50" height="50" relative="1" as="geometry">
            <mxPoint x="350" y="430" as="sourcePoint" />
            <mxPoint x="160" y="320" as="targetPoint" />
          </mxGeometry>
        </mxCell>
        <mxCell id="3APorna8TCqdDRzL2BzU-40" value="Appointment" style="ellipse;whiteSpace=wrap;html=1;fillColor=#cdeb8b;strokeColor=#36393d;rounded=1;" parent="WIyWlLk6GJQsqaUBKTNV-1" vertex="1">
          <mxGeometry x="354" y="50" width="120" height="80" as="geometry" />
        </mxCell>
        <mxCell id="3APorna8TCqdDRzL2BzU-42" value="" style="endArrow=classic;html=1;rounded=1;exitX=1;exitY=0.5;exitDx=0;exitDy=0;" parent="WIyWlLk6GJQsqaUBKTNV-1" source="3APorna8TCqdDRzL2BzU-29" edge="1">
          <mxGeometry width="50" height="50" relative="1" as="geometry">
            <mxPoint x="670" y="300" as="sourcePoint" />
            <mxPoint x="660" y="300" as="targetPoint" />
          </mxGeometry>
        </mxCell>
        <mxCell id="3APorna8TCqdDRzL2BzU-44" value="" style="endArrow=classic;startArrow=classic;html=1;rounded=1;exitX=1;exitY=0;exitDx=0;exitDy=0;entryX=0.011;entryY=0.627;entryDx=0;entryDy=0;entryPerimeter=0;" parent="WIyWlLk6GJQsqaUBKTNV-1" source="3APorna8TCqdDRzL2BzU-25" target="3APorna8TCqdDRzL2BzU-40" edge="1">
          <mxGeometry width="50" height="50" relative="1" as="geometry">
            <mxPoint x="310" y="160" as="sourcePoint" />
            <mxPoint x="350" y="550" as="targetPoint" />
          </mxGeometry>
        </mxCell>
        <mxCell id="3APorna8TCqdDRzL2BzU-56" style="edgeStyle=orthogonalEdgeStyle;rounded=1;orthogonalLoop=1;jettySize=auto;html=1;" parent="WIyWlLk6GJQsqaUBKTNV-1" source="3APorna8TCqdDRzL2BzU-47" edge="1">
          <mxGeometry relative="1" as="geometry">
            <mxPoint x="50" y="270" as="targetPoint" />
          </mxGeometry>
        </mxCell>
        <mxCell id="3APorna8TCqdDRzL2BzU-80" style="edgeStyle=orthogonalEdgeStyle;rounded=1;orthogonalLoop=1;jettySize=auto;html=1;entryX=0;entryY=0.5;entryDx=0;entryDy=0;" parent="WIyWlLk6GJQsqaUBKTNV-1" source="3APorna8TCqdDRzL2BzU-47" target="3APorna8TCqdDRzL2BzU-40" edge="1">
          <mxGeometry relative="1" as="geometry" />
        </mxCell>
        <mxCell id="3APorna8TCqdDRzL2BzU-47" value="Insight Generation" style="ellipse;whiteSpace=wrap;html=1;fillColor=#cdeb8b;strokeColor=#36393d;rounded=1;" parent="WIyWlLk6GJQsqaUBKTNV-1" vertex="1">
          <mxGeometry x="70" y="50" width="120" height="80" as="geometry" />
        </mxCell>
        <mxCell id="3APorna8TCqdDRzL2BzU-51" value="" style="endArrow=classic;html=1;rounded=1;entryX=0;entryY=0.5;entryDx=0;entryDy=0;exitX=1;exitY=1;exitDx=0;exitDy=0;" parent="WIyWlLk6GJQsqaUBKTNV-1" source="3APorna8TCqdDRzL2BzU-47" edge="1">
          <mxGeometry width="50" height="50" relative="1" as="geometry">
            <mxPoint x="150" y="290" as="sourcePoint" />
            <mxPoint x="354" y="190" as="targetPoint" />
          </mxGeometry>
        </mxCell>
        <mxCell id="3APorna8TCqdDRzL2BzU-55" value="" style="endArrow=classic;startArrow=classic;html=1;rounded=1;entryX=1;entryY=0.5;entryDx=0;entryDy=0;" parent="WIyWlLk6GJQsqaUBKTNV-1" target="3APorna8TCqdDRzL2BzU-40" edge="1">
          <mxGeometry width="50" height="50" relative="1" as="geometry">
            <mxPoint x="670" y="290" as="sourcePoint" />
            <mxPoint x="695" y="150" as="targetPoint" />
          </mxGeometry>
        </mxCell>
        <mxCell id="3APorna8TCqdDRzL2BzU-57" value="" style="endArrow=classic;startArrow=classic;html=1;rounded=1;exitX=1;exitY=0;exitDx=0;exitDy=0;" parent="WIyWlLk6GJQsqaUBKTNV-1" edge="1">
          <mxGeometry width="50" height="50" relative="1" as="geometry">
            <mxPoint x="150" y="309.52" as="sourcePoint" />
            <mxPoint x="351" y="309.52" as="targetPoint" />
          </mxGeometry>
        </mxCell>
        <mxCell id="3APorna8TCqdDRzL2BzU-58" value="Nearest&lt;br&gt;Hospital" style="ellipse;whiteSpace=wrap;html=1;fillColor=#cdeb8b;strokeColor=#36393d;rounded=1;" parent="WIyWlLk6GJQsqaUBKTNV-1" vertex="1">
          <mxGeometry x="355" y="500" width="120" height="80" as="geometry" />
        </mxCell>
        <mxCell id="3APorna8TCqdDRzL2BzU-60" value="" style="endArrow=classic;startArrow=classic;html=1;rounded=1;exitX=1;exitY=0;exitDx=0;exitDy=0;" parent="WIyWlLk6GJQsqaUBKTNV-1" edge="1">
          <mxGeometry width="50" height="50" relative="1" as="geometry">
            <mxPoint x="149" y="340" as="sourcePoint" />
            <mxPoint x="350" y="530" as="targetPoint" />
          </mxGeometry>
        </mxCell>
        <mxCell id="3APorna8TCqdDRzL2BzU-63" value="Actor" style="shape=umlActor;verticalLabelPosition=bottom;verticalAlign=top;html=1;outlineConnect=0;rounded=1;" parent="WIyWlLk6GJQsqaUBKTNV-1" vertex="1">
          <mxGeometry x="-20" y="280" width="30" height="60" as="geometry" />
        </mxCell>
        <mxCell id="3APorna8TCqdDRzL2BzU-64" value="Actor" style="shape=umlActor;verticalLabelPosition=bottom;verticalAlign=top;html=1;outlineConnect=0;rounded=1;" parent="WIyWlLk6GJQsqaUBKTNV-1" vertex="1">
          <mxGeometry x="810" y="280" width="30" height="60" as="geometry" />
        </mxCell>
        <mxCell id="3APorna8TCqdDRzL2BzU-67" value="&lt;h1&gt;Level 1&lt;/h1&gt;&lt;p&gt;There are two main catagories of users , the doctor and the patient&lt;/p&gt;" style="text;html=1;strokeColor=#666666;fillColor=#f5f5f5;spacing=5;spacingTop=-20;whiteSpace=wrap;overflow=hidden;rounded=1;fontColor=#333333;" parent="WIyWlLk6GJQsqaUBKTNV-1" vertex="1">
          <mxGeometry x="645" y="60" width="190" height="120" as="geometry" />
        </mxCell>
        <mxCell id="3APorna8TCqdDRzL2BzU-68" value="Hospitals Dataset" style="shape=cylinder3;whiteSpace=wrap;html=1;boundedLbl=1;backgroundOutline=1;size=15;fillColor=#ffcccc;strokeColor=#36393d;rounded=1;" parent="WIyWlLk6GJQsqaUBKTNV-1" vertex="1">
          <mxGeometry x="650" y="510" width="60" height="80" as="geometry" />
        </mxCell>
        <mxCell id="3APorna8TCqdDRzL2BzU-71" style="edgeStyle=orthogonalEdgeStyle;rounded=1;orthogonalLoop=1;jettySize=auto;html=1;entryX=1;entryY=0.633;entryDx=0;entryDy=0;entryPerimeter=0;" parent="WIyWlLk6GJQsqaUBKTNV-1" source="3APorna8TCqdDRzL2BzU-68" target="3APorna8TCqdDRzL2BzU-58" edge="1">
          <mxGeometry relative="1" as="geometry" />
        </mxCell>
        <mxCell id="3APorna8TCqdDRzL2BzU-72" value="&lt;font style=&quot;font-size: 8px;&quot;&gt;Symptoms&lt;/font&gt;" style="text;html=1;strokeColor=none;fillColor=none;align=center;verticalAlign=middle;whiteSpace=wrap;rounded=1;" parent="WIyWlLk6GJQsqaUBKTNV-1" vertex="1">
          <mxGeometry x="280" y="290" width="60" height="30" as="geometry" />
        </mxCell>
        <mxCell id="3APorna8TCqdDRzL2BzU-73" value="&lt;span style=&quot;font-size: 8px;&quot;&gt;Disease prediction&lt;/span&gt;" style="text;html=1;strokeColor=none;fillColor=none;align=center;verticalAlign=middle;whiteSpace=wrap;rounded=1;" parent="WIyWlLk6GJQsqaUBKTNV-1" vertex="1">
          <mxGeometry x="180" y="300" width="80" height="30" as="geometry" />
        </mxCell>
        <mxCell id="3APorna8TCqdDRzL2BzU-74" value="&lt;span style=&quot;font-size: 8px;&quot;&gt;Drug Predicted&lt;/span&gt;" style="text;html=1;strokeColor=none;fillColor=none;align=center;verticalAlign=middle;whiteSpace=wrap;rounded=1;rotation=-25;" parent="WIyWlLk6GJQsqaUBKTNV-1" vertex="1">
          <mxGeometry x="210" y="240" width="80" height="30" as="geometry" />
        </mxCell>
        <mxCell id="3APorna8TCqdDRzL2BzU-75" value="&lt;span style=&quot;font-size: 8px;&quot;&gt;Nearedt Hospital Details&lt;br&gt;&lt;/span&gt;" style="text;html=1;strokeColor=none;fillColor=none;align=center;verticalAlign=middle;whiteSpace=wrap;rounded=1;rotation=45;" parent="WIyWlLk6GJQsqaUBKTNV-1" vertex="1">
          <mxGeometry x="160" y="400" width="80" height="30" as="geometry" />
        </mxCell>
        <mxCell id="3APorna8TCqdDRzL2BzU-76" value="&lt;font style=&quot;font-size: 8px;&quot;&gt;Medical Profile&lt;/font&gt;" style="text;html=1;strokeColor=none;fillColor=none;align=center;verticalAlign=middle;whiteSpace=wrap;rounded=1;" parent="WIyWlLk6GJQsqaUBKTNV-1" vertex="1">
          <mxGeometry x="90" y="200" width="60" height="30" as="geometry" />
        </mxCell>
        <mxCell id="3APorna8TCqdDRzL2BzU-77" value="&lt;font style=&quot;font-size: 8px;&quot;&gt;Insights&lt;/font&gt;" style="text;html=1;strokeColor=none;fillColor=none;align=center;verticalAlign=middle;whiteSpace=wrap;rounded=1;" parent="WIyWlLk6GJQsqaUBKTNV-1" vertex="1">
          <mxGeometry x="-10" y="150" width="60" height="30" as="geometry" />
        </mxCell>
        <mxCell id="3APorna8TCqdDRzL2BzU-78" value="&lt;span style=&quot;font-size: 8px;&quot;&gt;Request Appointment&lt;br&gt;&lt;/span&gt;" style="text;html=1;strokeColor=none;fillColor=none;align=center;verticalAlign=middle;whiteSpace=wrap;rounded=1;rotation=318;" parent="WIyWlLk6GJQsqaUBKTNV-1" vertex="1">
          <mxGeometry x="180" y="190" width="80" height="30" as="geometry" />
        </mxCell>
        <mxCell id="3APorna8TCqdDRzL2BzU-79" value="&lt;span style=&quot;font-size: 8px;&quot;&gt;Appointment Time&lt;br&gt;&lt;/span&gt;" style="text;html=1;strokeColor=none;fillColor=none;align=center;verticalAlign=middle;whiteSpace=wrap;rounded=1;rotation=45;" parent="WIyWlLk6GJQsqaUBKTNV-1" vertex="1">
          <mxGeometry x="530" y="150" width="80" height="30" as="geometry" />
        </mxCell>
        <mxCell id="3APorna8TCqdDRzL2BzU-81" value="&lt;span style=&quot;font-size: 8px;&quot;&gt;Drug Predicted&lt;/span&gt;" style="text;html=1;strokeColor=none;fillColor=none;align=center;verticalAlign=middle;whiteSpace=wrap;rounded=1;rotation=30;" parent="WIyWlLk6GJQsqaUBKTNV-1" vertex="1">
          <mxGeometry x="500" y="230" width="80" height="30" as="geometry" />
        </mxCell>
        <mxCell id="3APorna8TCqdDRzL2BzU-82" value="&lt;span style=&quot;font-size: 8px;&quot;&gt;Disease prediction&lt;/span&gt;" style="text;html=1;strokeColor=none;fillColor=none;align=center;verticalAlign=middle;whiteSpace=wrap;rounded=1;" parent="WIyWlLk6GJQsqaUBKTNV-1" vertex="1">
          <mxGeometry x="500" y="310" width="80" height="30" as="geometry" />
        </mxCell>
      </root>
    </mxGraphModel>
  </diagram>
</mxfile>
